<svg xmlns="http://www.w3.org/2000/svg" xmlns:xlink="http://www.w3.org/1999/xlink" width="100" zoomAndPan="magnify" viewBox="0 0 75 74.999997" height="100" preserveAspectRatio="xMidYMid meet" version="1.0"><defs><clipPath id="27b7107111"><path d="M 1.925781 37 L 73.175781 37 L 73.175781 47 L 1.925781 47 Z M 1.925781 37 " clip-rule="nonzero"/></clipPath><clipPath id="22cbcac784"><path d="M 16 63 L 23 63 L 23 72.601562 L 16 72.601562 Z M 16 63 " clip-rule="nonzero"/></clipPath><clipPath id="dda1cea4fc"><path d="M 52 63 L 59 63 L 59 72.601562 L 52 72.601562 Z M 52 63 " clip-rule="nonzero"/></clipPath><clipPath id="30fef6731f"><path d="M 52 2.101562 L 68 2.101562 L 68 41 L 52 41 Z M 52 2.101562 " clip-rule="nonzero"/></clipPath></defs><rect x="-7.5" width="90" fill="#ffffff" y="-7.5" height="89.999996" fill-opacity="1"/><rect x="-7.5" width="90" fill="#ffffff" y="-7.5" height="89.999996" fill-opacity="1"/><g clip-path="url(#27b7107111)"><path fill="#000000" d="M 68.679688 37.210938 L 6.417969 37.210938 C 3.964844 37.210938 1.96875 39.195312 1.96875 41.636719 C 1.96875 44.074219 3.964844 46.058594 6.417969 46.058594 L 68.679688 46.058594 C 71.132812 46.058594 73.128906 44.074219 73.128906 41.636719 C 73.128906 39.195312 71.132812 37.210938 68.679688 37.210938 Z M 68.679688 43.109375 L 6.417969 43.109375 C 5.601562 43.109375 4.933594 42.449219 4.933594 41.636719 C 4.933594 40.820312 5.601562 40.160156 6.417969 40.160156 L 68.679688 40.160156 C 69.496094 40.160156 70.164062 40.820312 70.164062 41.636719 C 70.164062 42.449219 69.496094 43.109375 68.679688 43.109375 Z M 68.679688 43.109375 " fill-opacity="1" fill-rule="nonzero"/></g><path fill="#000000" d="M 69.089844 43.164062 C 68.289062 42.945312 67.480469 43.394531 67.257812 44.179688 L 63.171875 58.402344 C 62.269531 61.546875 59.335938 63.746094 56.042969 63.746094 L 19.058594 63.746094 C 15.765625 63.746094 12.835938 61.546875 11.929688 58.402344 L 7.84375 44.179688 C 7.621094 43.394531 6.8125 42.945312 6.011719 43.164062 C 5.222656 43.386719 4.769531 44.203125 4.996094 44.988281 L 9.082031 59.210938 C 10.347656 63.617188 14.445312 66.695312 19.058594 66.695312 L 56.042969 66.695312 C 60.652344 66.695312 64.753906 63.617188 66.023438 59.210938 L 70.105469 44.988281 C 70.332031 44.207031 69.878906 43.390625 69.089844 43.164062 Z M 69.089844 43.164062 " fill-opacity="1" fill-rule="nonzero"/><path fill="#000000" d="M 19.058594 57.851562 C 18.398438 57.851562 17.816406 57.410156 17.628906 56.78125 L 15.707031 50.078125 C 15.484375 49.296875 14.667969 48.839844 13.875 49.066406 C 13.089844 49.289062 12.632812 50.101562 12.859375 50.886719 L 14.78125 57.589844 C 15.320312 59.480469 17.082031 60.796875 19.058594 60.796875 C 19.875 60.796875 20.539062 60.140625 20.539062 59.328125 C 20.539062 58.515625 19.875 57.851562 19.058594 57.851562 Z M 19.058594 57.851562 " fill-opacity="1" fill-rule="nonzero"/><g clip-path="url(#22cbcac784)"><path fill="#000000" d="M 21.902344 63.898438 C 21.171875 63.542969 20.285156 63.828125 19.914062 64.5625 L 16.949219 70.457031 C 16.585938 71.183594 16.882812 72.070312 17.613281 72.4375 C 17.828125 72.542969 18.054688 72.589844 18.277344 72.589844 C 18.820312 72.589844 19.34375 72.292969 19.601562 71.773438 L 22.566406 65.878906 C 22.933594 65.152344 22.636719 64.265625 21.902344 63.898438 Z M 21.902344 63.898438 " fill-opacity="1" fill-rule="nonzero"/></g><g clip-path="url(#dda1cea4fc)"><path fill="#000000" d="M 58.148438 70.460938 L 55.183594 64.5625 C 54.816406 63.832031 53.929688 63.539062 53.195312 63.902344 C 52.464844 64.269531 52.167969 65.152344 52.53125 65.882812 L 55.496094 71.777344 C 55.757812 72.292969 56.277344 72.589844 56.820312 72.589844 C 57.042969 72.589844 57.269531 72.542969 57.484375 72.4375 C 58.21875 72.074219 58.515625 71.1875 58.148438 70.460938 Z M 58.148438 70.460938 " fill-opacity="1" fill-rule="nonzero"/></g><g clip-path="url(#30fef6731f)"><path fill="#000000" d="M 61.519531 2.09375 C 60.007812 2.09375 58.585938 2.683594 57.515625 3.746094 L 52.808594 8.425781 C 52.230469 9 52.230469 9.933594 52.808594 10.511719 C 53.386719 11.085938 54.328125 11.085938 54.90625 10.511719 L 59.613281 5.832031 C 60.117188 5.328125 60.796875 5.046875 61.535156 5.046875 C 63.023438 5.046875 64.234375 6.25 64.234375 7.730469 L 64.234375 38.6875 C 64.234375 39.5 64.898438 40.160156 65.714844 40.160156 C 66.535156 40.160156 67.199219 39.5 67.203125 38.683594 L 67.203125 7.726562 C 67.203125 4.621094 64.664062 2.09375 61.519531 2.09375 Z M 61.519531 2.09375 " fill-opacity="1" fill-rule="nonzero"/></g><path fill="#000000" d="M 56.390625 9.902344 L 53.425781 6.953125 C 53.085938 6.613281 52.613281 6.460938 52.136719 6.542969 L 44.726562 7.75 C 44.179688 7.835938 43.730469 8.21875 43.558594 8.742188 C 43.382812 9.261719 43.515625 9.835938 43.902344 10.230469 L 52.796875 19.339844 C 53.074219 19.632812 53.460938 19.789062 53.855469 19.789062 C 53.996094 19.789062 54.136719 19.769531 54.28125 19.730469 C 54.808594 19.574219 55.207031 19.140625 55.316406 18.605469 L 56.796875 11.234375 C 56.894531 10.75 56.742188 10.25 56.390625 9.902344 Z M 52.953125 15.273438 L 48 10.199219 L 51.863281 9.570312 L 53.730469 11.425781 Z M 52.953125 15.273438 " fill-opacity="1" fill-rule="nonzero"/><path fill="#000000" d="M 37.113281 19.957031 C 36.535156 19.382812 35.597656 19.382812 35.019531 19.957031 L 32.054688 22.902344 C 31.476562 23.480469 31.476562 24.414062 32.054688 24.988281 C 32.34375 25.273438 32.722656 25.417969 33.101562 25.417969 C 33.480469 25.417969 33.863281 25.273438 34.148438 24.988281 L 37.113281 22.039062 C 37.691406 21.464844 37.691406 20.53125 37.113281 19.957031 Z M 37.113281 19.957031 " fill-opacity="1" fill-rule="nonzero"/><path fill="#000000" d="M 43.042969 25.851562 C 42.464844 25.277344 41.527344 25.277344 40.949219 25.851562 L 37.984375 28.800781 C 37.40625 29.375 37.40625 30.308594 37.984375 30.886719 C 38.273438 31.171875 38.652344 31.316406 39.03125 31.316406 C 39.410156 31.316406 39.792969 31.171875 40.078125 30.886719 L 43.042969 27.9375 C 43.621094 27.363281 43.621094 26.425781 43.042969 25.851562 Z M 43.042969 25.851562 " fill-opacity="1" fill-rule="nonzero"/><path fill="#000000" d="M 46.007812 17.007812 C 45.429688 16.433594 44.492188 16.433594 43.914062 17.007812 L 40.949219 19.957031 C 40.371094 20.53125 40.371094 21.464844 40.949219 22.039062 C 41.238281 22.328125 41.617188 22.472656 41.996094 22.472656 C 42.375 22.472656 42.757812 22.328125 43.042969 22.039062 L 46.007812 19.09375 C 46.585938 18.515625 46.585938 17.582031 46.007812 17.007812 Z M 46.007812 17.007812 " fill-opacity="1" fill-rule="nonzero"/></svg>