<svg xmlns="http://www.w3.org/2000/svg" xmlns:xlink="http://www.w3.org/1999/xlink" width="100" zoomAndPan="magnify" viewBox="0 0 75 74.999997" height="100" preserveAspectRatio="xMidYMid meet" version="1.0"><defs><clipPath id="dca052ed77"><path d="M 1.261719 13.355469 L 74 13.355469 L 74 61.355469 L 1.261719 61.355469 Z M 1.261719 13.355469 " clip-rule="nonzero"/></clipPath></defs><rect x="-7.5" width="90" fill="#ffffff" y="-7.5" height="89.999996" fill-opacity="1"/><rect x="-7.5" width="90" fill="#ffffff" y="-7.5" height="89.999996" fill-opacity="1"/><g clip-path="url(#dca052ed77)"><path fill="#000000" d="M 69.140625 35.074219 L 69.140625 19.355469 C 69.140625 18.960938 69.101562 18.570312 69.023438 18.1875 C 68.945312 17.800781 68.832031 17.425781 68.679688 17.0625 C 68.527344 16.695312 68.339844 16.351562 68.117188 16.023438 C 67.898438 15.695312 67.644531 15.394531 67.363281 15.117188 C 67.082031 14.835938 66.777344 14.589844 66.445312 14.371094 C 66.117188 14.152344 65.765625 13.964844 65.398438 13.816406 C 65.03125 13.664062 64.652344 13.550781 64.265625 13.472656 C 63.875 13.394531 63.480469 13.355469 63.082031 13.355469 L 12.191406 13.355469 C 11.792969 13.355469 11.398438 13.394531 11.007812 13.472656 C 10.617188 13.550781 10.238281 13.664062 9.871094 13.816406 C 9.503906 13.964844 9.15625 14.152344 8.824219 14.371094 C 8.496094 14.589844 8.191406 14.835938 7.910156 15.117188 C 7.628906 15.394531 7.375 15.695312 7.15625 16.023438 C 6.933594 16.351562 6.746094 16.695312 6.59375 17.0625 C 6.441406 17.425781 6.328125 17.800781 6.25 18.1875 C 6.171875 18.570312 6.132812 18.960938 6.132812 19.355469 L 6.132812 35.074219 C 5.449219 35.214844 4.808594 35.464844 4.210938 35.820312 C 3.613281 36.179688 3.09375 36.625 2.652344 37.164062 C 2.210938 37.699219 1.871094 38.292969 1.636719 38.941406 C 1.402344 39.59375 1.285156 40.265625 1.285156 40.957031 L 1.285156 60.15625 C 1.285156 60.316406 1.316406 60.46875 1.378906 60.613281 C 1.4375 60.761719 1.527344 60.890625 1.640625 61.003906 C 1.753906 61.117188 1.882812 61.203125 2.03125 61.265625 C 2.179688 61.324219 2.335938 61.355469 2.496094 61.355469 C 2.65625 61.355469 2.8125 61.324219 2.960938 61.265625 C 3.109375 61.203125 3.238281 61.117188 3.351562 61.003906 C 3.46875 60.890625 3.554688 60.761719 3.617188 60.613281 C 3.675781 60.46875 3.707031 60.316406 3.707031 60.15625 L 3.707031 56.554688 L 71.5625 56.554688 L 71.5625 60.15625 C 71.5625 60.316406 71.59375 60.46875 71.65625 60.613281 C 71.71875 60.761719 71.804688 60.890625 71.917969 61.003906 C 72.03125 61.117188 72.164062 61.203125 72.3125 61.265625 C 72.460938 61.324219 72.617188 61.355469 72.777344 61.355469 C 72.9375 61.355469 73.089844 61.324219 73.238281 61.265625 C 73.386719 61.203125 73.519531 61.117188 73.632812 61.003906 C 73.746094 60.890625 73.835938 60.761719 73.894531 60.613281 C 73.957031 60.46875 73.988281 60.316406 73.988281 60.15625 L 73.988281 40.957031 C 73.988281 40.265625 73.867188 39.59375 73.632812 38.941406 C 73.398438 38.292969 73.0625 37.699219 72.621094 37.164062 C 72.179688 36.625 71.660156 36.179688 71.0625 35.820312 C 70.464844 35.464844 69.824219 35.214844 69.140625 35.074219 Z M 8.554688 19.355469 C 8.554688 18.878906 8.648438 18.417969 8.832031 17.976562 C 9.015625 17.539062 9.277344 17.148438 9.621094 16.808594 C 9.960938 16.472656 10.355469 16.210938 10.800781 16.03125 C 11.246094 15.847656 11.707031 15.757812 12.191406 15.757812 L 63.082031 15.757812 C 63.5625 15.757812 64.027344 15.847656 64.472656 16.03125 C 64.917969 16.210938 65.3125 16.472656 65.652344 16.808594 C 65.992188 17.148438 66.257812 17.539062 66.441406 17.976562 C 66.625 18.417969 66.71875 18.878906 66.71875 19.355469 L 66.71875 34.957031 L 63.082031 34.957031 L 63.082031 27.757812 C 63.082031 27.441406 63.050781 27.128906 62.988281 26.820312 C 62.925781 26.511719 62.835938 26.210938 62.714844 25.917969 C 62.589844 25.628906 62.441406 25.351562 62.265625 25.089844 C 62.089844 24.828125 61.886719 24.585938 61.664062 24.363281 C 61.4375 24.140625 61.191406 23.941406 60.929688 23.765625 C 60.664062 23.589844 60.382812 23.441406 60.089844 23.320312 C 59.796875 23.199219 59.492188 23.109375 59.179688 23.046875 C 58.867188 22.988281 58.554688 22.957031 58.234375 22.957031 L 43.695312 22.957031 C 43.375 22.957031 43.0625 22.988281 42.75 23.046875 C 42.4375 23.109375 42.132812 23.199219 41.839844 23.320312 C 41.546875 23.441406 41.265625 23.589844 41.003906 23.765625 C 40.738281 23.941406 40.492188 24.140625 40.269531 24.363281 C 40.042969 24.585938 39.839844 24.828125 39.664062 25.089844 C 39.488281 25.351562 39.339844 25.628906 39.21875 25.917969 C 39.09375 26.210938 39.003906 26.511719 38.941406 26.820312 C 38.878906 27.128906 38.847656 27.441406 38.847656 27.757812 L 38.847656 34.957031 L 36.425781 34.957031 L 36.425781 27.757812 C 36.425781 27.441406 36.394531 27.128906 36.332031 26.820312 C 36.269531 26.511719 36.175781 26.210938 36.054688 25.917969 C 35.933594 25.628906 35.785156 25.351562 35.609375 25.089844 C 35.429688 24.828125 35.230469 24.585938 35.003906 24.363281 C 34.78125 24.140625 34.535156 23.941406 34.269531 23.765625 C 34.007812 23.589844 33.726562 23.441406 33.433594 23.320312 C 33.136719 23.199219 32.835938 23.109375 32.523438 23.046875 C 32.210938 22.988281 31.894531 22.957031 31.578125 22.957031 L 17.039062 22.957031 C 16.71875 22.957031 16.402344 22.988281 16.089844 23.046875 C 15.78125 23.109375 15.476562 23.199219 15.183594 23.320312 C 14.886719 23.441406 14.609375 23.589844 14.34375 23.765625 C 14.078125 23.941406 13.835938 24.140625 13.609375 24.363281 C 13.386719 24.585938 13.183594 24.828125 13.007812 25.089844 C 12.832031 25.351562 12.679688 25.628906 12.558594 25.917969 C 12.4375 26.210938 12.34375 26.511719 12.285156 26.820312 C 12.222656 27.128906 12.191406 27.441406 12.191406 27.757812 L 12.191406 34.957031 L 8.554688 34.957031 Z M 60.660156 34.957031 L 41.269531 34.957031 L 41.269531 27.757812 C 41.269531 27.4375 41.332031 27.132812 41.457031 26.835938 C 41.578125 26.542969 41.753906 26.285156 41.980469 26.058594 C 42.207031 25.832031 42.46875 25.660156 42.765625 25.539062 C 43.0625 25.417969 43.375 25.355469 43.695312 25.355469 L 58.234375 25.355469 C 58.558594 25.355469 58.867188 25.417969 59.164062 25.539062 C 59.460938 25.660156 59.722656 25.832031 59.949219 26.058594 C 60.175781 26.285156 60.351562 26.542969 60.472656 26.835938 C 60.597656 27.132812 60.660156 27.4375 60.660156 27.757812 Z M 34 34.957031 L 14.613281 34.957031 L 14.613281 27.757812 C 14.613281 27.4375 14.675781 27.132812 14.796875 26.835938 C 14.921875 26.542969 15.097656 26.285156 15.324219 26.058594 C 15.550781 25.832031 15.8125 25.660156 16.109375 25.539062 C 16.40625 25.417969 16.714844 25.355469 17.039062 25.355469 L 31.578125 25.355469 C 31.898438 25.355469 32.207031 25.417969 32.503906 25.539062 C 32.800781 25.660156 33.0625 25.832031 33.292969 26.058594 C 33.519531 26.285156 33.695312 26.542969 33.816406 26.835938 C 33.941406 27.132812 34 27.4375 34 27.757812 Z M 7.34375 37.355469 L 67.929688 37.355469 C 68.410156 37.355469 68.875 37.449219 69.320312 37.628906 C 69.765625 37.8125 70.160156 38.074219 70.5 38.410156 C 70.839844 38.746094 71.101562 39.136719 71.289062 39.578125 C 71.472656 40.019531 71.5625 40.480469 71.5625 40.957031 L 71.5625 49.355469 L 3.707031 49.355469 L 3.707031 40.957031 C 3.707031 40.480469 3.800781 40.019531 3.984375 39.578125 C 4.167969 39.136719 4.433594 38.746094 4.773438 38.410156 C 5.113281 38.074219 5.507812 37.8125 5.953125 37.628906 C 6.398438 37.449219 6.863281 37.355469 7.34375 37.355469 Z M 3.707031 51.757812 L 71.5625 51.757812 L 71.5625 54.15625 L 3.707031 54.15625 Z M 3.707031 51.757812 " fill-opacity="1" fill-rule="nonzero"/></g></svg>