<svg xmlns="http://www.w3.org/2000/svg" xmlns:xlink="http://www.w3.org/1999/xlink" width="100" zoomAndPan="magnify" viewBox="0 0 75 74.999997" height="100" preserveAspectRatio="xMidYMid meet" version="1.0"><defs><clipPath id="22c106239f"><path d="M 2.910156 2.878906 L 71.910156 2.878906 L 71.910156 71.878906 L 2.910156 71.878906 Z M 2.910156 2.878906 " clip-rule="nonzero"/></clipPath></defs><rect x="-7.5" width="90" fill="#ffffff" y="-7.5" height="89.999996" fill-opacity="1"/><rect x="-7.5" width="90" fill="#ffffff" y="-7.5" height="89.999996" fill-opacity="1"/><g clip-path="url(#22c106239f)"><path fill="#000000" d="M 4.554688 71.824219 L 70.296875 71.824219 C 71.207031 71.824219 71.9375 71.085938 71.9375 70.183594 L 71.9375 4.492188 C 71.9375 3.582031 71.199219 2.851562 70.296875 2.851562 L 4.554688 2.851562 C 3.644531 2.851562 2.914062 3.589844 2.914062 4.492188 L 2.914062 70.175781 C 2.914062 71.085938 3.652344 71.816406 4.554688 71.816406 Z M 6.199219 6.140625 L 68.652344 6.140625 L 68.652344 68.542969 L 6.199219 68.542969 Z M 6.199219 6.140625 " fill-opacity="1" fill-rule="nonzero"/></g><path fill="#000000" d="M 25.921875 11.0625 C 25.921875 10.152344 25.183594 9.421875 24.28125 9.421875 L 11.132812 9.421875 C 10.917969 9.421875 10.703125 9.464844 10.503906 9.546875 C 10.316406 9.621094 10.152344 9.738281 10.007812 9.875 C 9.992188 9.890625 9.980469 9.890625 9.972656 9.902344 C 9.949219 9.925781 9.945312 9.945312 9.929688 9.964844 C 9.804688 10.105469 9.695312 10.253906 9.621094 10.433594 C 9.539062 10.636719 9.488281 10.855469 9.496094 11.070312 L 9.496094 24.199219 C 9.496094 25.109375 10.234375 25.839844 11.136719 25.839844 C 12.042969 25.839844 12.78125 25.101562 12.78125 24.199219 L 12.78125 15.027344 L 23.121094 25.359375 C 23.445312 25.683594 23.859375 25.839844 24.28125 25.839844 C 24.699219 25.839844 25.121094 25.683594 25.4375 25.359375 C 26.082031 24.71875 26.082031 23.675781 25.4375 23.035156 L 15.097656 12.703125 L 24.28125 12.703125 C 25.191406 12.703125 25.921875 11.964844 25.921875 11.0625 Z M 25.921875 11.0625 " fill-opacity="1" fill-rule="nonzero"/><path fill="#000000" d="M 63.722656 48.835938 C 62.8125 48.835938 62.078125 49.574219 62.078125 50.476562 L 62.078125 59.652344 L 51.738281 49.320312 C 51.097656 48.679688 50.054688 48.679688 49.414062 49.320312 C 48.773438 49.960938 48.773438 51 49.414062 51.640625 L 59.753906 61.976562 L 50.570312 61.976562 C 49.660156 61.976562 48.929688 62.710938 48.929688 63.617188 C 48.929688 64.519531 49.667969 65.253906 50.570312 65.253906 L 63.722656 65.253906 C 63.933594 65.253906 64.148438 65.214844 64.347656 65.132812 C 64.535156 65.054688 64.703125 64.9375 64.847656 64.800781 C 64.859375 64.785156 64.875 64.785156 64.878906 64.773438 C 64.902344 64.753906 64.90625 64.730469 64.921875 64.710938 C 65.046875 64.574219 65.15625 64.421875 65.230469 64.242188 C 65.316406 64.042969 65.363281 63.820312 65.355469 63.609375 L 65.355469 50.476562 C 65.355469 49.566406 64.617188 48.835938 63.714844 48.835938 Z M 63.722656 48.835938 " fill-opacity="1" fill-rule="nonzero"/></svg>